<svg width="53" height="21" viewBox="0 0 53 21" fill="none" xmlns="http://www.w3.org/2000/svg">
<path d="M12.3156 1.71126V5.29817H4.82762V9.17308H10.4305V12.6553H4.82762V20.0909H0.350525V1.71126H12.3156Z" fill="#2A3342"/>
<path d="M19.1458 0.716354V20.0909H14.6687V0.716354H19.1458Z" fill="#2A3342"/>
<path d="M36.1619 12.5505C36.1619 12.9694 36.1358 13.4058 36.0834 13.8596H25.951C26.0208 14.7673 26.3088 15.4654 26.815 15.9542C27.3387 16.4254 27.9758 16.6611 28.7263 16.6611C29.8434 16.6611 30.6201 16.1898 31.0565 15.2473H35.8216C35.5772 16.2073 35.1321 17.0713 34.4863 17.8393C33.8579 18.6073 33.0638 19.2094 32.1038 19.6458C31.1438 20.0822 30.0703 20.3004 28.8834 20.3004C27.4521 20.3004 26.1779 19.9949 25.0608 19.384C23.9438 18.7731 23.071 17.9004 22.4427 16.7658C21.8143 15.6313 21.5001 14.3047 21.5001 12.7862C21.5001 11.2676 21.8056 9.94108 22.4165 8.80653C23.0448 7.67199 23.9176 6.79926 25.0347 6.18835C26.1518 5.57744 27.4347 5.27199 28.8834 5.27199C30.2972 5.27199 31.5539 5.56872 32.6536 6.16217C33.7532 6.75563 34.6085 7.60217 35.2194 8.70181C35.8478 9.80144 36.1619 11.0844 36.1619 12.5505ZM31.5801 11.3724C31.5801 10.6044 31.3183 9.99344 30.7947 9.53963C30.271 9.08581 29.6165 8.8589 28.831 8.8589C28.0805 8.8589 27.4434 9.07708 26.9198 9.51344C26.4136 9.94981 26.0994 10.5694 25.9772 11.3724H31.5801Z" fill="#2A3342"/>
<path d="M47.1638 20.0909L44.3624 16.0327L42.006 20.0909H37.1624L41.9798 12.6291L37.0315 5.48144H42.0584L44.8598 9.51344L47.2162 5.48144H52.0598L47.1638 12.8385L52.1907 20.0909H47.1638Z" fill="#2A3342"/>
</svg>
